<svg width="3521" height="6080" viewBox="0 0 3521 6080" fill="none" xmlns="http://www.w3.org/2000/svg">
<path d="M1839.42 6078.72C2295.23 6098.02 2567.98 5608.55 2556.68 5195.05C2565.66 4660.38 2391.88 4142.64 2194.9 3650.54C2028.88 3239.29 1884.82 2818.47 1839.07 2380.77C1779.8 1968.87 1924.62 1399.97 2391.44 1401.33C2496.36 1401.63 2593.87 1482.62 2619.64 1586.43C2648 1690.67 2619.45 1807.97 2572.59 1911.89C2475.14 2122.5 2311.91 2302.1 2140.45 2466.01C1663.9 2979.71 769.768 3025.84 328.818 2464.85C-313.664 1674.44 482.319 536.221 1339.22 250.381C1550.56 177.61 1766.6 125.697 1986.72 108.263C2512.53 52.8456 3088.49 285.565 3308.46 774.158C3653.93 1645.58 3189.05 2701.01 2368.85 3154.83C1790.59 3488.14 1290.92 3955.87 860.629 4455.74C755.988 4570.07 655.428 4694.75 605.281 4850.62C547.828 5006.62 611.895 5196.83 734.97 5299.35C787.407 5354.43 898.185 5390.02 970.317 5330.37C1038.64 5277.59 1067.33 5202.49 1090.44 5133.04C1133.95 4990.73 1145.74 4844.98 1151.66 4700.4C1165.83 3651.82 1145.23 2602 1135.73 1553.34C1131.11 1131.45 1126.14 706.74 1122.7 286.449C1119.47 706.745 1118.11 1131.5 1116.73 1553.42C1111.35 2601.52 1119.04 3654.07 1094.18 4698.04C1087.08 4839.66 1073.37 4982.61 1031.57 5114.14C1010.52 5178.05 979.996 5244.22 932.846 5278.62C886.728 5314.29 826.065 5296.03 779.929 5251.16C525.658 5046.59 711.659 4706.95 914.512 4506.2C1353.75 4005.33 1837.66 3558.77 2414.04 3229.68C3262.56 2765.09 3767.04 1669.35 3397.93 733.376C3158.38 197.058 2529.11 -50.5794 1978.9 8.5695C1747.99 26.8856 1524.15 81.0663 1306.66 156.131C407.747 461.225 -442.838 1643.28 259.118 2524.85C732.321 3127.5 1709.15 3064.01 2195.44 2523.68C2369.54 2354.41 2536.68 2170.09 2640.4 1942.08C2689.7 1829.29 2724.08 1697.25 2688.28 1567.28C2654.69 1437.28 2530.09 1332.3 2391.44 1333.21C2152.04 1332.18 1934.81 1502.24 1851.32 1717.12C1762.93 1930.9 1761.28 2163.7 1784.18 2386.38C1835.84 2833.36 1986.18 3254.52 2157.94 3665.9C2359.95 4153.09 2539.12 4665.47 2537.69 5194.58C2553.83 5603.38 2295.22 6089.39 1839.42 6078.72Z" fill="#273617"/>
</svg>
